<svg fill="none" xmlns="http://www.w3.org/2000/svg" viewBox="0 0 253 256"><path d="M54.4.9C29.9 4.8 9.4 23.8 2.9 48.7c-3 11.6-3 30.5 0 39.3 4.8 13.6 15.5 25.9 34.6 39.5 9.9 7 23 14.3 24 13.4.3-.4-.4-6-1.5-12.5-2.9-16-3.8-42.2-1.7-51.9 2.3-10.8 6.2-18.1 13.8-25.8 11.9-12 29.3-18 51.9-18 14.7 0 25.2 2.3 37 8 21 10.2 30 33.1 24.4 62.3-.8 4.5-1.3 8.5-1 8.8 2 1.9 16.1-10.9 19.7-17.9 5.4-10.7 6.7-24.7 3-35.1-8.8-25.3-40.1-46.6-81.5-55.4C114.6 1 111 .8 86.5.5 71.7.3 57.2.5 54.4.9Z" fill="#9B283C"/><path d="M161 3.9c20.4 7.4 33.2 15.1 43.5 26.3 24.2 26.1 24.3 58 .5 81.8-15.8 15.8-36.4 21.8-68.2 19.9-24.5-1.5-48.2-10.7-62.5-24.2l-5.3-5v2.9c0 4.2 5.7 35.9 7.5 42.1 1.4 4.6 2.3 5.7 9.2 10.9 9.2 6.9 22.3 19.7 28 27.4 2.3 3 5.8 9 7.8 13.2 2.1 4.3 4 7.8 4.4 7.8.3 0 2.8-3.9 5.5-8.8 12.1-21.4 22.8-31.7 51.6-49.7 42.6-26.6 55.9-37 61.3-48 5.9-11.9 8.2-24.1 7.4-39-1.4-27-15.6-47.2-39.8-56.8C203.3 1.2 191.8 0 169 .1h-18.5L161 3.9Z" fill="#9B283C"/><path d="M105.6 45.5C87.3 50.1 73.9 62.4 72.3 76c-2 16.9 15 33 42.6 40.4 12.8 3.5 26.6 5 38 4.3 15.4-1 15.1-.9 18.4-10.7 3.4-10.3 5.1-31 2.6-31-.8 0-2.2 1.2-3.1 2.7-4.4 7.4-16.4 15.4-26.8 17.7-12.9 3-27.1 1.4-37.3-4.2-6.3-3.4-9.5-7.6-10.9-14.3-1-4.8-.9-5.9 1-10.1 1.5-3.5 3-5.2 5.6-6.5 2-.9 3.8-1.4 4.1-1.2.2.3-.3 2.8-1.2 5.5-1.5 4.7-1.5 5.3.2 8.9 3.7 7.6 15.2 12.2 28.1 11.2 12.3-1.1 22.1-5.8 27-13.1 3.4-4.9 3.3-12.8 0-17.7-3.1-4.5-10.3-9.4-17.1-11.6-7-2.3-30-2.7-37.9-.8ZM1.2 159.2l.3 44.3 2.7 7.5c1.4 4.1 3.9 9.7 5.4 12.5 4.1 7.5 16.6 19.4 24.9 23.7 12.9 6.7 15.3 7 51.3 7.5l32.2.5v-3.4c-.1-8.8-2.1-26.1-4-33.3-2.3-9-8.4-22-13.2-28-5.3-6.6-19.8-20.5-27.3-26-3.8-2.8-13.7-9.1-22-14-22.6-13.2-46.4-30.2-47.9-34.2-.3-.7-1-1.3-1.6-1.3-.8 0-1 12.8-.8 44.2ZM246 120.5c-6.8 6.9-17.4 14.2-40 27.5-22.8 13.3-30.8 18.9-40.3 28-23.2 22-34.5 47.1-32.2 71.7l.7 7.3h29.5c22.4 0 31.2-.4 37.1-1.5 22.7-4.5 41.3-21.4 48.9-44.3 1.2-3.8 1.7-12.9 2.3-47 .4-23.3.5-43.4.1-44.8-.6-2.4-.8-2.3-6.1 3.1Z" fill="#9B283C"/></svg>